<svg xmlns="http://www.w3.org/2000/svg" version="1.1" xmlns:xlink="http://www.w3.org/1999/xlink" xmlns:svgjs="http://svgjs.dev/svgjs" width="100%" height="100%" viewBox="0 0 1000 600"><rect width="1000" height="600" x="0" y="0" fill="#295f2d"/><g><circle r="166.66666666666666" cx="347.16381327311194" cy="358.9767235998768" fill="#ffe67c" transform="matrix(0.7349145141447846,0,0,0.7349145141447845,-2.0278836268661964,36.18280032174938)"/><path d="M249.24924858508896 283.97673815717815L268.12362044438544 302.8511100164746L194.3145752182548 302.8511100164746L194.3145752182548 340.2078939360726L244.0331681830789 340.2078939360726L262.48542948961153 358.8712105189872L262.48542948961153 415.1023662978816L244.0331681830789 433.9767381571781L191.5105551177523 433.9767381571781L172.84723853483771 415.1023662978816L172.84723853483771 400.117441674766L194.3145752182548 379.4943260968766L194.3145752182548 415.1023662978816L240.98794205242564 415.1023662978816L240.98794205242564 358.8712105189872L191.5105551177523 358.8712105189872L172.84723853483771 340.2078939360726L172.84723853483771 302.8511100164746L191.5105551177523 283.97673815717815L249.24924858508896 283.97673815717815ZM394.03316818307894 302.8511100164746L394.03316818307894 415.1023662978816L375.15879632378244 433.9767381571781L300.26432396197333 433.9767381571781L300.26432396197333 321.3033713230073L319.13869582126983 302.8511100164746L297.67135913785273 302.8511100164746L297.67135913785273 283.97673815717815L375.15879632378244 283.97673815717815L394.03316818307894 302.8511100164746ZM337.59095712780254 415.1023662978816L372.56583149966184 415.1023662978816L372.56583149966184 302.8511100164746L321.76181139915934 302.8511100164746L321.76181139915934 431.3837733330575L337.59095712780254 415.1023662978816ZM521.4804043639834 283.97673815717815L521.4804043639834 385.795833634565L486.08341943936034 433.9767381571781L461.99296717805373 433.9767381571781L427.68140938910904 385.795833634565L427.68140938910904 283.97673815717815L449.63115813282764 283.97673815717815L449.63115813282764 381.8762356446153L471.76181139915934 415.7355321270274L477.40000235393313 415.7355321270274L499.98291692679754 381.8762356446153L499.98291692679754 283.97673815717815L521.4804043639834 283.97673815717815Z " fill="#295f2d" transform="matrix(0.7349145141447846,0,0,0.7349145141447845,-2.0278836268661964,36.18280032174938)"/><path d="M659.9403696621176 311.95814904137495L659.9403696621176 385.0632680964846L647.648184722956 397.3554530356461L598.8721665298611 397.3554530356461L598.8721665298611 323.97542888605045L611.1643514690228 311.95814904137495L597.1638277284122 311.95814904137495L597.1638277284122 299.66596410221337L647.648184722956 299.66596410221337L659.9403696621176 311.95814904137495ZM623.1816313136983 385.0632680964846L645.9398459215071 385.0632680964846L645.9398459215071 311.95814904137495L612.8726902704717 311.95814904137495L612.8726902704717 395.66675031237475L623.1816313136983 385.0632680964846ZM733.5952989061993 385.0632680964846L733.5952989061993 397.3554530356461L695.2853103817516 397.3554530356461L683.130577989833 385.0632680964846L683.130577989833 336.28724990338964L695.2853103817516 323.97542888605045L721.4405665142808 323.97542888605045L733.5952989061993 336.28724990338964L733.5952989061993 360.7341672344698L721.4405665142808 372.8888996263884L698.819804453715 372.8888996263884L711.2690780182973 360.7341672344698L719.7518637910093 360.7341672344698L719.7518637910093 336.28724990338964L697.1311017304436 336.28724990338964L697.1311017304436 385.0632680964846L733.5952989061993 385.0632680964846ZM800.4757811790179 320.57838736133016L800.4757811790179 377.8371913271372L780.8200669232658 397.3554530356461L769.3722333457399 397.3554530356461L749.853971637231 377.8371913271372L749.853971637231 320.57838736133016L763.7170428305985 334.5789111019407L763.7170428305985 375.5790423367161L775.1648764081244 386.61451827251295L786.4752574384073 375.5790423367161L786.4752574384073 334.5789111019407L800.4757811790179 320.57838736133016ZM870.4587638038931 385.0632680964846L870.4587638038931 397.3554530356461L832.1487752794454 397.3554530356461L819.9940428875268 385.0632680964846L819.9940428875268 336.28724990338964L832.1487752794454 323.97542888605045L858.3040314119746 323.97542888605045L870.4587638038931 336.28724990338964L870.4587638038931 360.7341672344698L858.3040314119746 372.8888996263884L835.6832693514089 372.8888996263884L848.1129068378134 360.7341672344698L856.5956926105256 360.7341672344698L856.5956926105256 336.28724990338964L833.9749305499598 336.28724990338964L833.9749305499598 385.0632680964846L870.4587638038931 385.0632680964846ZM916.2697341921743 385.0632680964846L916.2697341921743 397.3554530356461L902.4066629988067 397.3554530356461L890.2519306068882 385.0632680964846L890.2519306068882 297.8201727535213L904.2524543474988 283.9767376383314L904.2524543474988 385.0632680964846L916.2697341921743 385.0632680964846ZM978.6142824059732 336.28724990338964L978.6142824059732 385.0632680964846L966.4595500140546 397.3554530356461L940.3042938815254 397.3554530356461L928.1495614896069 385.0632680964846L928.1495614896069 336.28724990338964L940.3042938815254 323.97542888605045L966.4595500140546 323.97542888605045L978.6142824059732 336.28724990338964ZM942.1304491520398 385.0632680964846L964.7512112126055 385.0632680964846L964.7512112126055 336.28724990338964L942.1304491520398 336.28724990338964L942.1304491520398 385.0632680964846ZM1052.7012053699614 336.28724990338964L1052.7012053699614 385.0632680964846L1040.6839255252862 397.3554530356461L1016.0799195687852 397.3554530356461L1016.0799195687852 433.97673883682245L1002.0793958281745 433.97673883682245L1002.0793958281745 323.97542888605045L1016.0799195687852 323.97542888605045L1016.0799195687852 334.5789111019407L1026.2514080647688 323.97542888605045L1040.6839255252862 323.97542888605045L1052.7012053699614 336.28724990338964ZM1026.2514080647688 385.0632680964846L1038.700681629351 385.0632680964846L1038.700681629351 336.28724990338964L1016.0799195687852 336.28724990338964L1016.0799195687852 395.66675031237475L1026.2514080647688 385.0632680964846ZM1124.804884438015 385.0632680964846L1124.804884438015 397.3554530356461L1086.4948959135672 397.3554530356461L1074.3205274434708 385.0632680964846L1074.3205274434708 336.28724990338964L1086.4948959135672 323.97542888605045L1112.650152046096 323.97542888605045L1124.804884438015 336.28724990338964L1124.804884438015 360.7341672344698L1112.650152046096 372.8888996263884L1090.0293899855305 372.8888996263884L1102.4590274719353 360.7341672344698L1110.9418132446472 360.7341672344698L1110.9418132446472 336.28724990338964L1088.3210511840816 336.28724990338964L1088.3210511840816 385.0632680964846L1124.804884438015 385.0632680964846ZM1193.374069434105 336.28724990338964L1193.374069434105 348.44198229530826L1179.3735456934942 362.4425060359188L1179.3735456934942 336.28724990338964L1158.5985749816205 336.28724990338964L1158.5985749816205 397.3554530356461L1144.5980512410097 397.3554530356461L1144.5980512410097 323.97542888605045L1158.5985749816205 323.97542888605045L1158.5985749816205 334.5789111019407L1168.7700634776043 323.97542888605045L1181.219337042186 323.97542888605045L1193.374069434105 336.28724990338964Z " fill="#ffe67c" transform="matrix(0.7349145141447846,0,0,0.7349145141447845,-2.0278836268661964,36.18280032174938)"/></g></svg>